<?xml version="1.0" encoding="UTF-8" standalone="no"?>
<!-- Created with Inkscape (http://www.inkscape.org/) -->

<svg
   width="285.375"
   height="80.844002"
   viewBox="0 0 54.053375 15.312805"
   version="1.1"
   id="svg1"
   inkscape:version="1.3.2 (091e20e, 2023-11-25)"
   sodipodi:docname="encrypttionlogo.svg"
   inkscape:export-filename="encrypttionlogo.png"
   inkscape:export-xdpi="16"
   inkscape:export-ydpi="16"
   xmlns:inkscape="http://www.inkscape.org/namespaces/inkscape"
   xmlns:sodipodi="http://sodipodi.sourceforge.net/DTD/sodipodi-0.dtd"
   xmlns="http://www.w3.org/2000/svg"
   xmlns:svg="http://www.w3.org/2000/svg">
  <sodipodi:namedview
     id="namedview1"
     pagecolor="#ffffff"
     bordercolor="#000000"
     borderopacity="0.25"
     inkscape:showpageshadow="2"
     inkscape:pageopacity="0.0"
     inkscape:pagecheckerboard="0"
     inkscape:deskcolor="#d1d1d1"
     inkscape:document-units="px"
     inkscape:zoom="0.92737795"
     inkscape:cx="393.04363"
     inkscape:cy="541.85028"
     inkscape:window-width="2560"
     inkscape:window-height="1412"
     inkscape:window-x="0"
     inkscape:window-y="0"
     inkscape:window-maximized="0"
     inkscape:current-layer="layer1" />
  <defs
     id="defs1">
    <linearGradient
       id="swatch20"
       inkscape:swatch="solid">
      <stop
         style="stop-color:#ff0606;stop-opacity:1;"
         offset="0"
         id="stop20" />
    </linearGradient>
    <rect
       x="75.481628"
       y="186.54745"
       width="386.03464"
       height="217.81842"
       id="rect3" />
    <rect
       x="52.837143"
       y="98.126122"
       width="593.06995"
       height="256.63757"
       id="rect2" />
  </defs>
  <g
     inkscape:label="Layer 1"
     inkscape:groupmode="layer"
     id="layer1"
     transform="translate(-0.75590324,-4.9133774)">
    <text
       xml:space="preserve"
       style="font-size:3.175px;fill:#fed43f;fill-opacity:1;stroke-width:0.264583"
       x="31.95389"
       y="35.09222"
       id="text1"><tspan
         sodipodi:role="line"
         id="tspan1"
         style="stroke-width:0.264583"
         x="31.95389"
         y="35.09222" /></text>
    <text
       xml:space="preserve"
       transform="matrix(0.26458334,0,0,0.26458334,-12.268011,12.553314)"
       id="text2"
       style="font-size:64px;white-space:pre;shape-inside:url(#rect2);shape-padding:4.31324;display:inline;fill:#fed43f;fill-opacity:1"><tspan
         x="57.150391"
         y="525.61859"
         id="tspan8"><tspan
           dx="0 58.291641 60.791641 50.208313 42.416656 55.541626"
           style="font-weight:bold;font-size:85.3333px"
           id="tspan3">Encryp</tspan><tspan
           dx="59.666656"
           style="font-size:192px;fill:#543631"
           id="tspan6">π</tspan><tspan
           dx="122.34375 29.166656 58.583313"
           style="font-weight:bold;font-size:85.3333px"
           id="tspan7">ion</tspan></tspan></text>
    <path
       id="rect5"
       style="fill:#543631;fill-opacity:0.01;stroke-width:0.264583"
       d="m 92.438285,47.930924 v 25.96224 h 2.282032 v -6.308659 c -0.970293,-0.548879 -0.970293,-1.66959 0,-2.218469 V 47.930924 Z" />
    <text
       xml:space="preserve"
       transform="scale(0.26458333)"
       id="text3"
       style="font-size:85.3333px;font-family:Georgia;-inkscape-font-specification:Georgia;white-space:pre;shape-inside:url(#rect3);display:inline;fill:#ececec;fill-opacity:0.01" />
    <path
       id="text4"
       style="font-size:22.5778px;font-family:Georgia;-inkscape-font-specification:Georgia;fill:#285fe6;stroke-width:0.112185;stroke-dasharray:none;fill-opacity:1"
       d="m 32.467392,6.5473325 c -0.362482,0 -0.692012,0.07832 -0.988588,0.234971 -0.296576,0.149188 -0.530541,0.335674 -0.701897,0.559456 -0.197718,0.24616 -0.339415,0.496051 -0.425092,0.74967 -0.08568,0.253617 -0.128517,0.507237 -0.128517,0.760858 0,0.261079 0.0066,0.496051 0.01977,0.704914 0.01317,0.201404 0.02966,0.406537 0.04943,0.6154005 h 0.62281 c 0.02637,-0.3132955 0.0692,-0.6042115 0.128517,-0.8727505 0.06591,-0.268538 0.154879,-0.488591 0.266919,-0.660157 0.138401,-0.216322 0.313052,-0.391619 0.523951,-0.525888 0.210898,-0.134268 0.490998,-0.201403 0.840299,-0.201403 h 0.355479 c -0.08283,-0.357475 0.193483,-0.768319 0.829589,-0.768319 h 1.09898 1.182184 0.872431 0.531775 0.41253 c 0.636107,0 0.912421,0.410844 0.829591,0.768319 h 2.152034 v -1.365071 z m 6.24787,1.538735 c -0.12255,0.19621 -0.374803,0.344995 -0.757299,0.344995 h -0.41253 -0.531775 -0.15694 v 6.9556625 c 0,0.74594 0.154879,1.335234 0.464635,1.76788 0.316348,0.432644 0.787577,0.648967 1.413681,0.648967 0.461339,0 0.846891,-0.04103 1.156647,-0.12308 0.309762,-0.08205 0.619513,-0.182755 0.929276,-0.302106 v -0.716102 c -0.09886,0.0075 -0.214191,0.01492 -0.346008,0.02238 -0.125225,0.0075 -0.233964,0.01119 -0.326236,0.01119 -0.461339,0 -0.817232,-0.13054 -1.067672,-0.391619 -0.243851,-0.268538 -0.365779,-0.62659 -0.365779,-1.074152 z m -5.412308,0.199537 c 0.0049,0.121997 0.01136,0.221381 0.01462,0.365277 0.0066,0.290917 0.0099,0.548267 0.0099,0.772049 0,1.2084215 -0.09556,2.3534445 -0.286691,3.4350555 -0.191126,1.081613 -0.44816,1.999121 -0.771098,2.752521 l -0.553609,-0.179025 c -0.22408,-0.08205 -0.44157,-0.123081 -0.652468,-0.123081 -0.34271,0 -0.603039,0.13054 -0.780984,0.391619 -0.171355,0.253619 -0.257033,0.514699 -0.257033,0.783238 0,0.313294 0.09227,0.615401 0.276805,0.906317 0.184536,0.283457 0.474522,0.425186 0.869957,0.425186 0.481111,0 0.90291,-0.208863 1.265391,-0.62659 0.362481,-0.425185 0.685421,-1.025669 0.968815,-1.801446 0.289986,-0.790697 0.507475,-1.734313 0.652469,-2.830845 0.151582,-1.096531 0.227374,-2.107283 0.227374,-3.0322475 0,-0.320754 -0.0033,-0.619131 -0.0099,-0.895129 -0.0018,-0.07815 -0.0035,-0.126093 -0.0054,-0.197441 h -0.411088 c -0.235023,0 -0.420228,-0.05668 -0.557109,-0.145458 z m 9.486525,1.7489975 c -0.149384,0 -0.279805,0.06804 -0.391109,0.203968 -0.108384,0.135927 -0.162502,0.295061 -0.162502,0.477402 0,0.172396 0.05412,0.326557 0.162502,0.462485 0.111304,0.132611 0.241725,0.198839 0.391109,0.198839 0.161098,0 0.295715,-0.06962 0.404083,-0.208864 0.111316,-0.142558 0.167034,-0.308244 0.167034,-0.497217 0,-0.16908 -0.05412,-0.316687 -0.162498,-0.442668 C 43.092641,10.09925 42.95644,10.034602 42.789479,10.034602 Z M 1.164392,10.512004 v 0.353157 c 0.079087,0.0066 0.1845364,0.02652 0.316348,0.05967 0.1347408,0.03316 0.2415861,0.07112 0.3206729,0.114223 0.1025203,0.05304 0.170028,0.122665 0.2022487,0.208863 0.032223,0.08288 0.048194,0.179181 0.048194,0.288586 v 5.072395 c 0,0.122666 -0.018971,0.223704 -0.05705,0.303272 -0.035148,0.07957 -0.099659,0.144215 -0.1933925,0.193944 -0.043937,0.02321 -0.138997,0.04649 -0.2854544,0.0697 -0.1464574,0.01989 -0.2636921,0.033 -0.3515665,0.03963 v 0.353157 H 6.3402645 L 6.458895,15.489991 H 6.1425472 c -0.041009,0.152503 -0.1362739,0.391204 -0.2856605,0.716103 -0.146457,0.321583 -0.2870567,0.561864 -0.4217981,0.720998 -0.049795,0.05968 -0.1346709,0.107824 -0.254766,0.144292 -0.117167,0.03315 -0.231404,0.05621 -0.3427109,0.06947 -0.1083787,0.01326 -0.2417916,0.02005 -0.3999657,0.02005 H 4.0553921 c -0.2431194,0 -0.4304473,-0.0084 -0.5622592,-0.02494 -0.1318116,-0.01989 -0.235865,-0.06125 -0.3120225,-0.124245 -0.076158,-0.06299 -0.127487,-0.155896 -0.1538489,-0.278563 -0.026364,-0.122665 -0.039544,-0.290165 -0.039544,-0.502344 V 14.112341 H 3.69085 c 0.1903946,0 0.3425732,0.01989 0.4568096,0.05967 0.1171662,0.03978 0.2212186,0.124324 0.3120226,0.25362 0.055654,0.07957 0.1083788,0.208864 0.1581741,0.387889 0.052724,0.17571 0.084876,0.343211 0.096593,0.502345 H 5.0439784 V 12.555881 H 4.7144502 c -0.014642,0.142558 -0.045403,0.295138 -0.092268,0.457588 -0.043937,0.159133 -0.098058,0.286617 -0.1624994,0.38276 -0.079087,0.112721 -0.1713545,0.194101 -0.276804,0.24383 -0.1025206,0.04641 -0.266484,0.06946 -0.4920286,0.06946 H 2.9877175 v -2.804735 h 0.9799369 c 0.1611033,0 0.3044943,0.0034 0.430448,0.01002 0.1259532,0.0066 0.2344003,0.01658 0.3252034,0.02984 0.1757485,0.02652 0.3602853,0.182263 0.5536087,0.467378 0.1962527,0.2818 0.3236713,0.548758 0.3822537,0.80072 h 0.3295295 v -1.700745 z m 13.194346,2.01404 c -0.307561,0 -0.591757,0.07301 -0.852451,0.218886 -0.260694,0.142558 -0.477382,0.33153 -0.650202,0.566916 -0.181608,0.245332 -0.32081,0.518843 -0.417472,0.820534 -0.09373,0.298377 -0.140462,0.619805 -0.140462,0.964595 0,0.792353 0.177145,1.423916 0.531572,1.894687 0.354426,0.470772 0.845127,0.706313 1.471964,0.706313 0.336853,0 0.663384,-0.114378 0.979732,-0.343133 0.316348,-0.228755 0.571184,-0.53889 0.764507,-0.930094 l -0.281129,-0.208863 c -0.164032,0.311637 -0.342779,0.545365 -0.536102,0.701184 -0.190395,0.155818 -0.427656,0.233805 -0.711783,0.233805 -0.392506,0 -0.71025,-0.193944 -0.95337,-0.581833 -0.24019,-0.391205 -0.360422,-0.895051 -0.360422,-1.511696 0,-0.391204 0.03375,-0.727784 0.101125,-1.009584 0.06737,-0.2818 0.155244,-0.505582 0.263623,-0.671346 0.120095,-0.182341 0.243119,-0.306665 0.369072,-0.37297 0.128883,-0.06962 0.263692,-0.104432 0.404291,-0.104432 0.120095,0 0.231334,0.01831 0.333855,0.05478 0.105449,0.03315 0.184536,0.100961 0.23726,0.203735 -0.0059,0.07294 -0.02644,0.189127 -0.06158,0.348261 -0.03514,0.155818 -0.05272,0.308166 -0.05272,0.457354 0,0.122666 0.04693,0.233884 0.140668,0.333343 0.09666,0.09946 0.231471,0.149188 0.404291,0.149188 0.161103,0 0.276736,-0.06307 0.347035,-0.189049 0.0703,-0.129297 0.105449,-0.276905 0.105449,-0.44267 0,-0.397834 -0.133207,-0.711129 -0.39976,-0.939885 -0.266553,-0.23207 -0.61226,-0.348027 -1.036986,-0.348026 z m 32.218062,0 c -0.638554,0 -1.155616,0.243674 -1.551048,0.731022 -0.392513,0.487347 -0.588628,1.113938 -0.588628,1.87977 0,0.397834 0.05551,0.757465 0.16683,1.079049 0.114232,0.318267 0.266615,0.588619 0.457013,0.810743 0.193319,0.22544 0.414403,0.39768 0.663387,0.51703 0.248969,0.116036 0.511195,0.174131 0.786537,0.174131 0.330999,0 0.62977,-0.06465 0.896321,-0.193945 0.26655,-0.129296 0.500816,-0.326633 0.702926,-0.591857 0.17868,-0.23207 0.316489,-0.513714 0.413154,-0.845244 0.09666,-0.334844 0.144988,-0.674817 0.144988,-1.019606 0,-0.769148 -0.197722,-1.383979 -0.593155,-1.844805 -0.3925,-0.46414 -0.891989,-0.696289 -1.498325,-0.696288 z m -36.6644404,0.0049 c -0.187465,0 -0.3560292,0.02668 -0.5054152,0.07972 -0.149387,0.05304 -0.278201,0.119272 -0.386579,0.198839 -0.09373,0.06962 -0.1933919,0.160714 -0.298841,0.273433 -0.1054495,0.109404 -0.1933246,0.20389 -0.2636236,0.283457 h -0.021834 v -0.69116 l -0.061581,-0.0697 -1.4410718,0.109559 v 0.323086 c 0.087874,0.0066 0.1697531,0.01997 0.2459107,0.03986 0.076158,0.01658 0.1420639,0.04483 0.1977177,0.08462 0.076158,0.05967 0.1348779,0.137428 0.1758866,0.233572 0.043937,0.09283 0.065905,0.19568 0.065905,0.3084 v 3.028518 c 0,0.119351 -0.020574,0.217229 -0.061581,0.293481 -0.038076,0.07294 -0.098195,0.124246 -0.1802115,0.154083 -0.052725,0.01989 -0.1156326,0.03323 -0.1888613,0.03986 -0.0703,0.0066 -0.1392032,0.01319 -0.2065737,0.01982 v 0.328213 h 2.1221679 v -0.328214 c -0.07616,-0.0066 -0.150851,-0.01816 -0.22408,-0.03473 -0.070299,-0.01658 -0.1362054,-0.04144 -0.1977174,-0.07459 -0.082016,-0.03978 -0.1435285,-0.0963 -0.1845364,-0.169235 -0.041009,-0.07294 -0.061375,-0.16561 -0.061375,-0.278329 v -2.819655 c 0.026369,-0.05304 0.067302,-0.122666 0.1229557,-0.208864 0.058583,-0.08951 0.1362739,-0.172472 0.2329356,-0.248723 0.09959,-0.07957 0.2138275,-0.145795 0.3427095,-0.19884 0.128883,-0.05636 0.270879,-0.08462 0.426123,-0.08462 0.2079692,0 0.3837182,0.09449 0.5272466,0.283458 0.146458,0.188972 0.219756,0.457511 0.219756,0.805616 v 2.521279 c 0,0.119351 -0.02057,0.217229 -0.06158,0.293481 -0.03808,0.07294 -0.0982,0.124246 -0.180212,0.154084 -0.05272,0.01989 -0.1200264,0.03323 -0.2020424,0.03986 -0.07909,0.0066 -0.152384,0.01319 -0.2197552,0.01981 v 0.328214 H 11.76637 v -0.328214 c -0.0908,-0.0066 -0.1625,-0.01658 -0.215224,-0.02984 -0.0498,-0.01326 -0.109912,-0.03655 -0.180211,-0.0697 -0.08495,-0.03978 -0.144856,-0.09449 -0.180006,-0.164107 -0.03514,-0.07294 -0.05273,-0.167422 -0.05273,-0.283457 v -2.551117 c 0,-0.487347 -0.101055,-0.876816 -0.303166,-1.168562 -0.199182,-0.295061 -0.506742,-0.442669 -0.9226814,-0.442669 z m 17.2277824,0 c -0.222616,0 -0.446695,0.06646 -0.67224,0.199073 -0.225544,0.132612 -0.414474,0.298299 -0.566789,0.497216 l -0.03522,-0.01002 V 12.66521 l -0.06158,-0.05968 -1.47629,0.109558 v 0.323086 c 0.08787,0.0066 0.178747,0.02155 0.272479,0.04476 0.09373,0.01989 0.16703,0.04973 0.219755,0.08951 0.0703,0.05636 0.127418,0.130955 0.171355,0.223782 0.04394,0.09283 0.06591,0.189127 0.06591,0.288585 v 5.216456 c 0,0.11272 -0.01758,0.210599 -0.05272,0.293481 -0.03514,0.08288 -0.09666,0.140978 -0.184536,0.174131 -0.06737,0.02321 -0.143666,0.0397 -0.228612,0.04965 -0.08494,0.0099 -0.172818,0.01831 -0.263622,0.02494 v 0.333109 h 2.421009 v -0.333109 c -0.08495,-0.0033 -0.193393,-0.02005 -0.325204,-0.04988 -0.128883,-0.02652 -0.228337,-0.05455 -0.298636,-0.08438 -0.08495,-0.03647 -0.148059,-0.09456 -0.189067,-0.174131 -0.04101,-0.07957 -0.06138,-0.179026 -0.06138,-0.298376 v -1.472067 h 0.03501 c 0.105449,0.08951 0.241655,0.1675 0.408616,0.233806 0.166962,0.06631 0.380858,0.09954 0.641552,0.09954 0.269482,0 0.524318,-0.06149 0.764508,-0.184154 0.24019,-0.122665 0.45848,-0.298298 0.654733,-0.527053 0.187466,-0.22544 0.338248,-0.497371 0.452485,-0.81564 0.114236,-0.321583 0.171354,-0.676241 0.171354,-1.06413 0,-0.394521 -0.04833,-0.744206 -0.144992,-1.049213 -0.09373,-0.308321 -0.226941,-0.578672 -0.39976,-0.810743 -0.161103,-0.218808 -0.354427,-0.392861 -0.579971,-0.522157 -0.222616,-0.129297 -0.468664,-0.193945 -0.738145,-0.193945 z m 25.087052,0 c -0.187468,0 -0.355825,0.02668 -0.505209,0.07972 -0.149387,0.05304 -0.278404,0.119272 -0.386788,0.198839 -0.09373,0.06962 -0.193183,0.160714 -0.298636,0.273433 -0.105448,0.109405 -0.193318,0.203891 -0.263622,0.283458 h -0.02206 v -0.69116 l -0.06158,-0.0697 -1.441072,0.109559 v 0.323086 c 0.08787,0.0066 0.169957,0.01997 0.246112,0.03986 0.07616,0.01658 0.142064,0.04483 0.197718,0.08462 0.07616,0.05967 0.134678,0.137428 0.175681,0.233573 0.04394,0.09283 0.0659,0.195679 0.0659,0.3084 v 3.028518 c 0,0.119351 -0.02058,0.217229 -0.06158,0.293481 -0.03809,0.07294 -0.09799,0.124246 -0.180005,0.154083 -0.05272,0.01989 -0.115839,0.03323 -0.189062,0.03986 -0.07031,0.0066 -0.138997,0.01319 -0.20637,0.01981 v 0.328213 h 2.122165 v -0.328206 c -0.07615,-0.0066 -0.150851,-0.01816 -0.224079,-0.03473 -0.07029,-0.01658 -0.136205,-0.04144 -0.197718,-0.07459 -0.08202,-0.03978 -0.143532,-0.0963 -0.184536,-0.169236 -0.04101,-0.07294 -0.06158,-0.165609 -0.06158,-0.278328 v -2.819654 c 0.02636,-0.05304 0.06731,-0.122667 0.122955,-0.208864 0.05858,-0.08951 0.136277,-0.172473 0.232942,-0.248723 0.09959,-0.07957 0.213824,-0.145795 0.342706,-0.198841 0.128882,-0.05636 0.270878,-0.08462 0.426121,-0.08462 0.207977,0 0.383721,0.09449 0.527249,0.283457 0.146456,0.188972 0.219756,0.457512 0.219756,0.805617 v 2.521279 c 0,0.119351 -0.02058,0.217228 -0.06158,0.293481 -0.03809,0.07294 -0.09799,0.124245 -0.180005,0.154083 -0.05273,0.01989 -0.120234,0.03323 -0.202249,0.03986 -0.07909,0.0066 -0.152179,0.01319 -0.219552,0.01981 v 0.328214 h 2.122169 v -0.328214 c -0.0908,-0.0066 -0.162705,-0.01658 -0.215428,-0.02984 -0.0498,-0.01326 -0.109708,-0.03655 -0.180004,-0.0697 -0.08495,-0.03978 -0.145064,-0.09449 -0.180212,-0.164107 -0.03518,-0.07294 -0.05273,-0.167422 -0.05273,-0.283457 v -2.551117 c 0,-0.487347 -0.101057,-0.876816 -0.303166,-1.168562 -0.199182,-0.295061 -0.50674,-0.442669 -0.922682,-0.442669 z m -33.1496,0.01492 c -0.184536,0 -0.388043,0.06962 -0.610658,0.208864 -0.222616,0.139243 -0.424727,0.343133 -0.606334,0.611671 h -0.02204 v -0.69116 l -0.06158,-0.0697 -1.441072,0.109558 v 0.323086 c 0.08787,0.0066 0.169959,0.01997 0.246117,0.03986 0.07616,0.01658 0.142064,0.04483 0.197717,0.08462 0.07616,0.05967 0.134673,0.139241 0.175681,0.2387 0.04394,0.09946 0.06591,0.200498 0.06591,0.303272 v 3.028518 c 0,0.119351 -0.02057,0.217229 -0.06158,0.293481 -0.03807,0.07294 -0.09799,0.124246 -0.180005,0.154083 -0.05272,0.01989 -0.115838,0.03323 -0.189066,0.03986 -0.0703,0.0066 -0.138998,0.01319 -0.206368,0.01982 v 0.328213 h 2.284666 v -0.328212 c -0.08495,-0.0066 -0.186001,-0.01816 -0.303166,-0.03473 -0.114237,-0.01658 -0.207902,-0.04144 -0.28113,-0.07459 -0.08495,-0.03647 -0.14806,-0.09117 -0.189067,-0.164107 -0.03808,-0.07294 -0.05705,-0.167421 -0.05705,-0.283457 v -2.854621 c 0.128882,-0.232069 0.28566,-0.411096 0.470197,-0.537077 0.184536,-0.12598 0.345502,-0.188816 0.483172,-0.188816 -0.0088,0.05967 -0.01897,0.11935 -0.03069,0.179026 -0.0088,0.05967 -0.01317,0.125903 -0.01317,0.19884 0,0.116035 0.04254,0.222046 0.127487,0.31819 0.08787,0.09614 0.21369,0.144293 0.377722,0.144293 0.152316,0 0.265156,-0.06465 0.338386,-0.193944 0.07323,-0.132612 0.109774,-0.28338 0.109774,-0.45246 0,-0.228755 -0.05851,-0.411174 -0.17568,-0.5471 -0.114237,-0.135927 -0.263623,-0.203969 -0.44816,-0.203969 z m 24.133678,0.05967 -1.529007,0.10956 v 0.323086 c 0.08787,0.0066 0.184536,0.02494 0.28998,0.05478 0.105453,0.02652 0.185936,0.05975 0.241586,0.09954 0.07615,0.05967 0.134673,0.134269 0.175681,0.223782 0.04393,0.0862 0.0659,0.182263 0.0659,0.288352 v 3.028519 c 0,0.11935 -0.02038,0.217229 -0.06137,0.293481 -0.03813,0.07294 -0.09819,0.124246 -0.180212,0.154083 -0.05272,0.01989 -0.115628,0.03323 -0.188852,0.03986 -0.07031,0.0066 -0.139208,0.01319 -0.20658,0.01982 v 0.328214 h 2.095803 v -0.328214 c -0.07615,-0.0066 -0.145063,-0.01816 -0.206572,-0.03473 -0.06151,-0.01989 -0.124415,-0.04476 -0.18886,-0.07459 -0.08495,-0.03647 -0.14786,-0.09298 -0.188863,-0.169235 -0.03813,-0.07625 -0.05726,-0.172318 -0.05726,-0.288353 v -3.998256 z m -23.540526,0.05967 v 0.328214 c 0.131812,0.02321 0.263624,0.07791 0.395436,0.164107 0.131811,0.08288 0.225475,0.200652 0.281129,0.353156 0.246048,0.663058 0.481913,1.304567 0.707458,1.924527 0.225544,0.619959 0.477382,1.322723 0.755651,2.108447 -0.0908,0.285115 -0.238588,0.616722 -0.443629,0.994665 -0.202111,0.377941 -0.376463,0.611666 -0.522921,0.701179 -0.02929,-0.05636 -0.06883,-0.127561 -0.11863,-0.213758 -0.0498,-0.0862 -0.09673,-0.154238 -0.140668,-0.203968 -0.05272,-0.06299 -0.112635,-0.1143 -0.180005,-0.154083 -0.06737,-0.03978 -0.14806,-0.05967 -0.241793,-0.05967 -0.120095,0 -0.22115,0.05131 -0.303166,0.154081 -0.07909,0.106089 -0.118631,0.241938 -0.118631,0.407703 0,0.159135 0.06451,0.300188 0.193393,0.422855 0.131812,0.122665 0.311954,0.183921 0.540427,0.183921 0.117167,0 0.230007,-0.02486 0.338386,-0.07459 0.111307,-0.04641 0.234332,-0.13932 0.369072,-0.278562 0.13767,-0.149187 0.27827,-0.354658 0.421797,-0.616567 0.146458,-0.258589 0.311817,-0.620034 0.496354,-1.084175 0.140599,-0.354737 0.345708,-0.908313 0.615189,-1.660883 0.272411,-0.752571 0.582969,-1.586444 0.931538,-2.501465 0.0703,-0.179026 0.177145,-0.316454 0.320673,-0.412599 0.143529,-0.09946 0.259161,-0.157553 0.347035,-0.17413 v -0.308396 h -1.608102 v 0.318423 c 0.120096,0.01658 0.246118,0.06291 0.377929,0.139165 0.134741,0.07294 0.202042,0.152503 0.202042,0.238701 0,0.07957 -0.01897,0.175632 -0.05705,0.288352 -0.03808,0.109406 -0.06744,0.195758 -0.08794,0.258749 -0.175748,0.517185 -0.335318,0.966329 -0.478846,1.347589 -0.140599,0.377942 -0.276805,0.744359 -0.408616,1.099096 -0.125954,-0.371313 -0.303098,-0.865446 -0.531572,-1.482091 -0.228474,-0.619959 -0.398433,-1.093968 -0.50974,-1.422182 -0.01757,-0.04973 -0.03375,-0.09788 -0.0484,-0.144293 -0.01171,-0.04641 -0.01751,-0.07941 -0.01751,-0.0993 0,-0.04973 0.06151,-0.09291 0.184537,-0.129374 0.123024,-0.03978 0.228473,-0.06125 0.316348,-0.06457 v -0.348262 z m 26.897195,0.238701 c 0.219687,0 0.405822,0.06307 0.55815,0.189049 0.152307,0.122666 0.275333,0.286773 0.369063,0.49232 0.08788,0.192288 0.153783,0.427596 0.197714,0.706081 0.04394,0.275168 0.06591,0.537154 0.06591,0.785802 0,0.706156 -0.107056,1.259732 -0.320881,1.660882 -0.213824,0.401151 -0.503816,0.601881 -0.869959,0.601881 -0.222608,0 -0.409943,-0.05968 -0.56225,-0.179026 -0.149396,-0.122665 -0.274026,-0.290165 -0.373615,-0.502345 -0.09959,-0.21218 -0.172677,-0.452458 -0.219548,-0.720997 -0.04394,-0.271854 -0.0659,-0.56707 -0.0659,-0.88534 0,-0.242015 0.01899,-0.492243 0.05705,-0.750835 0.03809,-0.258592 0.103976,-0.488928 0.197714,-0.69116 0.09959,-0.218809 0.228399,-0.39128 0.386577,-0.517263 0.161098,-0.12598 0.354429,-0.18905 0.579968,-0.18905 z M 26.823794,13.08293 c 0.225544,0 0.418868,0.05967 0.579971,0.179026 0.161103,0.119351 0.291313,0.275325 0.390904,0.467611 0.09959,0.188972 0.172888,0.410941 0.219755,0.666218 0.04687,0.255277 0.07023,0.505738 0.07023,0.75107 0,0.334844 -0.02776,0.638194 -0.08341,0.910047 -0.05566,0.271854 -0.142133,0.510554 -0.259299,0.716103 -0.10252,0.179025 -0.229938,0.318267 -0.382253,0.417726 -0.152316,0.09614 -0.31049,0.14406 -0.474523,0.14406 -0.152315,0 -0.281129,-0.02487 -0.386578,-0.07459 -0.10545,-0.05305 -0.203507,-0.120853 -0.294311,-0.203735 -0.07323,-0.06962 -0.140737,-0.152581 -0.202249,-0.248725 -0.05858,-0.09614 -0.100917,-0.189049 -0.12728,-0.278562 v -2.899145 c 0.111307,-0.149188 0.243119,-0.276904 0.395434,-0.382994 0.152316,-0.109404 0.336853,-0.164107 0.55361,-0.164106 z" />
  </g>
</svg>
