<?xml version="1.0" standalone="no"?>
<!DOCTYPE svg PUBLIC "-//W3C//DTD SVG 20010904//EN"
 "http://www.w3.org/TR/2001/REC-SVG-20010904/DTD/svg10.dtd">
<svg version="1.0" xmlns="http://www.w3.org/2000/svg"
 width="643.000000pt" height="590.000000pt" viewBox="0 0 643.000000 590.000000"
 preserveAspectRatio="xMidYMid meet">
<metadata>
Created by potrace 1.16, written by Peter Selinger 2001-2019
</metadata>
<g transform="translate(0.000000,590.000000) scale(0.100000,-0.100000)"
fill="#000000" stroke="none">
<path d="M0 2950 l0 -2950 3215 0 3215 0 0 2950 0 2950 -3215 0 -3215 0 0
-2950z m3073 2223 c-7 -2 -21 -2 -30 0 -10 3 -4 5 12 5 17 0 24 -2 18 -5z
m495 0 c-10 -2 -28 -2 -40 0 -13 2 -5 4 17 4 22 1 32 -1 23 -4z m-601 -9 c-3
-3 -12 -4 -19 -1 -8 3 -5 6 6 6 11 1 17 -2 13 -5z m696 -1 c-7 -2 -19 -2 -25
0 -7 3 -2 5 12 5 14 0 19 -2 13 -5z m-760 -10 c-7 -2 -19 -2 -25 0 -7 3 -2 5
12 5 14 0 19 -2 13 -5z m852 -3 c27 -7 27 -8 5 -8 -14 0 -38 4 -55 8 -27 7
-27 8 -5 8 14 0 39 -4 55 -8z m-1008 -26 c-3 -3 -12 -4 -19 -1 -8 3 -5 6 6 6
11 1 17 -2 13 -5z m1126 -1 c-7 -2 -19 -2 -25 0 -7 3 -2 5 12 5 14 0 19 -2 13
-5z m44 -9 c-3 -3 -12 -4 -19 -1 -8 3 -5 6 6 6 11 1 17 -2 13 -5z m92 -20 c10
-9 -35 -3 -49 6 -11 8 -7 9 15 4 17 -4 32 -8 34 -10z m86 -24 c13 -6 15 -9 5
-9 -8 0 -22 4 -30 9 -18 12 -2 12 25 0z m115 -42 c10 -6 7 -7 -10 -2 -14 3
-32 11 -40 16 -10 6 -7 7 10 2 14 -3 32 -11 40 -16z m84 -27 c4 -5 -3 -7 -14
-4 -23 6 -26 13 -6 13 8 0 17 -4 20 -9z m51 -29 c-3 -3 -11 0 -18 7 -9 10 -8
11 6 5 10 -3 15 -9 12 -12z m90 -32 c3 -5 -4 -6 -15 -3 -11 3 -22 9 -25 13 -3
5 4 6 15 3 11 -3 22 -9 25 -13z m125 -65 c0 -3 -22 6 -50 20 -27 14 -50 28
-50 30 0 3 23 -6 50 -20 28 -14 50 -28 50 -30z m60 -31 c0 -2 -9 0 -20 6 -11
6 -20 13 -20 16 0 2 9 0 20 -6 11 -6 20 -13 20 -16z m55 -24 c3 -6 -1 -7 -9
-4 -18 7 -21 14 -7 14 6 0 13 -4 16 -10z m91 -57 c-4 -4 -76 37 -76 44 0 2 18
-6 40 -18 22 -12 38 -24 36 -26z m49 -23 c3 -5 2 -10 -4 -10 -5 0 -13 5 -16
10 -3 6 -2 10 4 10 5 0 13 -4 16 -10z m115 -77 c0 -2 -18 7 -40 19 -22 13 -40
26 -40 31 0 4 18 -5 40 -19 22 -15 40 -28 40 -31z m-3170 -7 c0 -2 -8 -10 -17
-17 -16 -13 -17 -12 -4 4 13 16 21 21 21 13z m3220 -22 c0 -2 -9 0 -20 6 -11
6 -20 13 -20 16 0 2 9 0 20 -6 11 -6 20 -13 20 -16z m35 -24 c3 -6 -1 -7 -9
-4 -18 7 -21 14 -7 14 6 0 13 -4 16 -10z m81 -62 c4 -7 -9 1 -29 16 -20 16
-37 30 -37 33 0 7 58 -36 66 -49z m124 -95 c0 -7 -58 36 -66 49 -4 7 9 -1 29
-16 20 -16 37 -30 37 -33z m136 -120 c44 -43 60 -60 35 -37 -25 22 -65 57 -89
77 -23 20 -38 37 -34 37 4 0 44 -35 88 -77z m-4256 34 c0 -2 -10 -12 -22 -23
l-23 -19 19 23 c18 21 26 27 26 19z m45 -17 c10 -11 16 -20 13 -20 -3 0 -13 9
-23 20 -10 11 -16 20 -13 20 3 0 13 -9 23 -20z m35 -50 c6 -11 8 -20 6 -20 -3
0 -10 9 -16 20 -6 11 -8 20 -6 20 3 0 10 -9 16 -20z m-132 -21 c-6 -16 -12
-28 -14 -26 -5 5 13 57 20 57 3 0 0 -14 -6 -31z m161 -39 c11 -24 11 -24 -3
-6 -9 11 -16 24 -16 30 0 12 5 7 19 -24z m-185 -27 c-4 -16 -10 -32 -15 -37
-5 -5 -4 6 1 25 6 18 10 35 10 36 0 2 2 3 5 3 3 0 2 -12 -1 -27z m4482 -35
l29 -33 -32 29 c-18 17 -33 31 -33 33 0 8 8 1 36 -29z m-4222 -41 c4 4 4 0 0
-10 -8 -21 -20 -14 -27 15 -5 21 -5 21 7 6 7 -10 16 -15 20 -11z m-293 -21
c-14 -36 -22 -33 -9 5 6 16 12 28 14 26 3 -2 0 -16 -5 -31z m4590 -28 c16 -30
3 -20 -27 20 -23 30 -24 33 -5 17 13 -11 27 -28 32 -37z m-4620 -49 c-5 -13
-10 -19 -10 -12 -1 15 10 45 15 40 3 -2 0 -15 -5 -28z m4632 -21 c-9 -10 -21
-18 -27 -18 -6 0 -2 7 9 16 11 8 19 23 17 32 -2 14 -1 15 7 2 7 -10 5 -20 -6
-32z m-48 -27 c-15 -13 -62 -26 -50 -13 6 5 19 12 30 15 11 3 22 5 25 6 2 0 0
-3 -5 -8z m-65 -26 c0 -6 -73 -25 -78 -20 -2 2 11 8 29 14 41 11 49 12 49 6z
m-115 -40 c-30 -14 -73 -20 -62 -9 6 6 64 22 82 22 6 0 -3 -6 -20 -13z m-79
-34 c0 -11 -4 -17 -8 -15 -4 3 -8 12 -8 20 0 8 4 14 8 14 4 0 8 -9 8 -19z
m-4389 -63 c-3 -8 -6 -5 -6 6 -1 11 2 17 5 13 3 -3 4 -12 1 -19z m4441 -63
c-3 -3 -9 2 -12 12 -6 14 -5 15 5 6 7 -7 10 -15 7 -18z m-4464 -44 c-4 -17 -9
-30 -11 -27 -3 2 -2 19 2 36 9 41 17 33 9 -9z m2544 -41 c115 -28 168 -50 272
-113 50 -30 54 -34 142 -117 139 -131 227 -287 270 -475 17 -79 17 -295 -1
-360 -37 -136 -55 -185 -97 -264 -106 -202 -232 -314 -485 -432 -34 -16 -145
-40 -231 -49 -351 -40 -703 136 -887 445 -88 146 -121 261 -128 447 -5 128 6
200 53 336 108 316 413 565 737 602 101 12 265 3 355 -20z m1982 -65 c0 -5 -5
-3 -10 5 -5 8 -10 20 -10 25 0 6 5 3 10 -5 5 -8 10 -19 10 -25z m-4556 -19
c-3 -21 -8 -35 -11 -32 -2 2 -1 20 3 40 3 21 8 35 11 32 2 -2 1 -20 -3 -40z
m-17 -78 c-3 -8 -6 -5 -6 6 -1 11 2 17 5 13 3 -3 4 -12 1 -19z m4631 -93 c0
-16 -2 -15 -8 5 -11 34 -11 60 0 35 5 -11 8 -29 8 -40z m-4641 23 c-3 -8 -6
-5 -6 6 -1 11 2 17 5 13 3 -3 4 -12 1 -19z m-10 -50 c-3 -7 -5 -2 -5 12 0 14
2 19 5 13 2 -7 2 -19 0 -25z m4691 -143 c0 -11 -6 3 -14 30 -7 28 -13 59 -13
70 2 24 27 -71 27 -100z m-4701 63 c-3 -7 -5 -2 -5 12 0 14 2 19 5 13 2 -7 2
-19 0 -25z m-10 -115 c-3 -10 -5 -4 -5 12 0 17 2 24 5 18 2 -7 2 -21 0 -30z
m4738 -108 c39 -306 7 -697 -81 -980 -62 -201 -185 -478 -255 -576 -10 -15
-19 -30 -19 -34 0 -20 -214 -312 -320 -435 -106 -124 -142 -160 -153 -153 -6
3 -7 1 -4 -4 8 -13 -17 -36 -28 -25 -5 4 -5 2 -2 -4 8 -14 -17 -37 -28 -26 -5
4 -5 2 -2 -4 8 -14 -17 -37 -28 -26 -5 4 -5 2 -2 -5 9 -15 -143 -155 -161
-148 -7 3 -11 1 -8 -4 12 -18 -156 -148 -389 -301 -146 -96 -175 -113 -175
-101 0 6 5 11 11 11 19 0 61 38 47 43 -7 2 -10 8 -5 12 4 5 13 3 19 -3 9 -9
19 -6 42 12 17 12 36 25 41 27 39 17 85 53 75 59 -9 5 -9 9 -1 14 6 4 11 2 11
-3 0 -18 13 -12 53 22 37 30 37 32 14 32 -14 0 -23 -3 -21 -6 10 -16 -24 -28
-54 -19 -18 5 -32 6 -32 3 0 -3 -6 0 -14 6 -20 17 -46 2 -46 -26 0 -21 -4 -24
-22 -19 -13 3 -35 6 -50 6 -23 0 -28 4 -28 25 0 23 -3 25 -50 25 -47 0 -50 -2
-50 -25 0 -24 -2 -25 -69 -25 -65 0 -70 2 -73 23 -3 21 -7 22 -125 25 -105 2
-123 0 -123 -13 0 -19 -16 -20 -23 -1 -4 11 -22 14 -66 13 -34 -1 -61 -4 -61
-7 0 -3 11 -13 24 -24 14 -10 22 -24 20 -31 -3 -7 5 -19 18 -26 13 -6 27 -17
31 -23 6 -8 10 -7 14 1 8 21 46 -5 40 -27 -3 -14 6 -27 32 -47 20 -15 38 -30
41 -33 20 -23 141 -110 153 -110 18 0 101 36 147 65 19 12 44 25 55 28 l20 7
-20 -16 c-11 -8 -60 -35 -109 -60 -106 -53 -77 -64 -297 115 -111 90 -148 126
-138 132 11 7 11 9 -3 9 -9 0 -18 3 -20 8 -1 4 -33 31 -71 60 -100 79 -115
111 -83 170 8 15 29 56 47 92 17 36 64 119 103 185 40 66 75 127 79 135 4 8
16 29 27 45 11 17 23 37 26 45 7 13 139 233 189 314 11 18 33 54 49 82 100
169 127 216 157 274 18 36 36 67 39 70 5 5 136 270 151 305 4 11 21 52 37 91
16 39 33 86 37 104 4 19 11 41 15 50 10 20 30 102 41 164 10 59 15 278 7 321
-3 17 -3 20 -1 8 2 -13 8 -23 13 -23 5 0 10 -10 12 -22 3 -20 10 -23 51 -26
42 -3 47 -5 47 -28 0 -29 -68 -26 583 -25 466 1 527 0 527 -14 0 -24 98 -21
119 4 30 34 40 11 44 -94 2 -69 3 -49 5 65 1 100 -4 208 -13 275 -14 103 -18
173 -10 150 3 -5 11 -64 20 -130z m-4748 -207 c-1 -51 -3 -12 -3 87 0 99 2
141 3 93 2 -48 2 -129 0 -180z m3340 140 c-3 -7 -5 -2 -5 12 0 14 2 19 5 13 2
-7 2 -19 0 -25z m1387 -153 c-4 -8 -8 -15 -10 -15 -2 0 -4 7 -4 15 0 8 4 15
10 15 5 0 7 -7 4 -15z m-4717 -157 c-3 -7 -5 -2 -5 12 0 14 2 19 5 13 2 -7 2
-19 0 -25z m10 -110 c-3 -8 -6 -5 -6 6 -1 11 2 17 5 13 3 -3 4 -12 1 -19z m10
-80 c-3 -8 -6 -5 -6 6 -1 11 2 17 5 13 3 -3 4 -12 1 -19z m10 -40 c-3 -8 -6
-5 -6 6 -1 11 2 17 5 13 3 -3 4 -12 1 -19z m20 -120 c-3 -8 -6 -5 -6 6 -1 11
2 17 5 13 3 -3 4 -12 1 -19z m187 -534 c3 -8 2 -12 -4 -9 -6 3 -10 10 -10 16
0 14 7 11 14 -7z m30 -60 c3 -8 2 -12 -4 -9 -6 3 -10 10 -10 16 0 14 7 11 14
-7z m30 -60 c3 -8 2 -12 -4 -9 -6 3 -10 10 -10 16 0 14 7 11 14 -7z m147 -241
c13 -16 12 -17 -3 -4 -10 7 -18 15 -18 17 0 8 8 3 21 -13z m90 -120 c13 -16
12 -17 -3 -4 -10 7 -18 15 -18 17 0 8 8 3 21 -13z m120 -140 c13 -16 12 -17
-3 -4 -17 13 -22 21 -14 21 2 0 10 -8 17 -17z m125 -125 l29 -33 -32 29 c-31
28 -38 36 -30 36 2 0 16 -15 33 -32z m1401 -644 c-3 -3 -12 -4 -19 -1 -8 3 -5
6 6 6 11 1 17 -2 13 -5z m221 -11 c-21 -2 -55 -2 -75 0 -21 2 -4 4 37 4 41 0
58 -2 38 -4z"/>
<path d="M3646 3253 c-4 -5 -173 -10 -374 -13 -356 -5 -368 -6 -412 -28 -58
-29 -97 -84 -106 -150 -6 -46 -4 -53 20 -77 32 -32 50 -28 54 12 2 17 14 41
28 54 22 21 38 25 110 28 69 2 84 0 84 -12 0 -41 -44 -261 -65 -323 -13 -39
-49 -113 -79 -165 -30 -52 -58 -113 -62 -136 -6 -37 -3 -45 21 -69 23 -23 32
-26 68 -21 98 13 146 157 168 507 5 96 13 185 17 198 7 21 13 23 114 28 58 2
109 1 111 -3 3 -5 1 -100 -3 -213 -9 -216 0 -393 22 -432 52 -92 126 -120 209
-78 46 24 72 63 95 138 30 104 2 131 -43 42 -37 -72 -70 -86 -112 -46 -45 43
-56 116 -54 354 0 112 4 214 7 227 6 24 10 25 77 25 61 0 73 3 94 25 14 13 25
35 25 48 0 14 3 39 6 56 6 29 -3 40 -20 24z"/>
<path d="M5501 2524 c0 -11 3 -14 6 -6 3 7 2 16 -1 19 -3 4 -6 -2 -5 -13z"/>
<path d="M4379 642 c-15 -15 -40 -37 -55 -49 -16 -13 -24 -23 -19 -23 13 0
123 99 110 99 -5 1 -22 -12 -36 -27z"/>
<path d="M4277 603 c-4 -3 -7 -17 -7 -30 0 -16 -6 -23 -19 -23 -10 0 -21 -9
-24 -20 -6 -25 -7 -25 29 3 17 12 29 27 27 34 -2 6 1 14 6 18 6 3 11 10 11 16
0 10 -14 12 -23 2z"/>
<path d="M3768 483 c6 -2 18 -2 25 0 6 3 1 5 -13 5 -14 0 -19 -2 -12 -5z"/>
<path d="M4120 480 c0 -5 5 -10 10 -10 6 0 10 5 10 10 0 6 -4 10 -10 10 -5 0
-10 -4 -10 -10z"/>
</g>
</svg>
